<svg xmlns="http://www.w3.org/2000/svg" width="900" height="640" viewBox="0 0 900 640">
  <rect width="900" height="640" rx="30" fill="#f7fafc"/>
  <rect x="58" y="62" width="300" height="220" rx="24" fill="#dff4ff" stroke="#c4d9e8" stroke-width="4"/>
  <rect x="388" y="88" width="450" height="185" rx="24" fill="#ffffff" stroke="#c4d9e8" stroke-width="4"/>
  <rect x="110" y="330" width="650" height="245" rx="24" fill="#fff7ea" stroke="#e8d4ae" stroke-width="4"/>
  <path d="M118 478 C214 410 306 520 404 452 C505 385 604 507 694 443" fill="none" stroke="#1abc9c" stroke-width="14" stroke-linecap="round"/>
  <circle cx="150" cy="465" r="18" fill="#1abc9c"/>
  <circle cx="406" cy="452" r="18" fill="#1abc9c"/>
  <circle cx="690" cy="443" r="18" fill="#1abc9c"/>
  <path d="M452 158 l70 -20 92 38 74 -52 72 28" fill="none" stroke="#204c73" stroke-width="12" stroke-linecap="round" stroke-linejoin="round"/>
  <rect x="96" y="106" width="220" height="130" rx="20" fill="#204c73"/>
  <circle cx="205" cy="170" r="44" fill="#dff4ff"/>
  <circle cx="205" cy="170" r="18" fill="#204c73"/>
  <rect x="148" y="86" width="74" height="28" rx="8" fill="#204c73"/>
  <text x="430" y="236" font-family="Arial" font-size="34" fill="#173047" font-weight="700">TRAINS • PHOTOS • MEMORIES</text>
  <text x="150" y="550" font-family="Arial" font-size="32" fill="#173047" font-weight="700">Collect moments, not just stops.</text>
</svg>
