<svg xmlns="http://www.w3.org/2000/svg" width="1200" height="800" viewBox="0 0 1200 800">
  <rect width="1200" height="800" rx="40" fill="#f8fbff"/>
  <path d="M140 650 C250 560 310 545 420 470 C540 385 635 365 760 265 C820 220 900 180 1020 130" fill="none" stroke="#1abc9c" stroke-width="18" stroke-linecap="round"/>
  <circle cx="170" cy="626" r="54" fill="#dff4ff" stroke="#1f3c58" stroke-width="6"/>
  <circle cx="440" cy="450" r="54" fill="#fde7c1" stroke="#1f3c58" stroke-width="6"/>
  <circle cx="760" cy="265" r="54" fill="#d3f3e7" stroke="#1f3c58" stroke-width="6"/>
  <circle cx="1010" cy="138" r="54" fill="#dff4ff" stroke="#1f3c58" stroke-width="6"/>
  <text x="112" y="636" font-family="Arial" font-size="28" fill="#173047" font-weight="700">Service</text>
  <text x="407" y="460" font-family="Arial" font-size="28" fill="#173047" font-weight="700">Skills</text>
  <text x="704" y="275" font-family="Arial" font-size="28" fill="#173047" font-weight="700">Growth</text>
  <text x="949" y="148" font-family="Arial" font-size="26" fill="#173047" font-weight="700">Career</text>
  <rect x="118" y="120" width="260" height="120" rx="22" fill="#ffffff" stroke="#c8dae8" stroke-width="4"/>
  <text x="145" y="165" font-family="Arial" font-size="28" fill="#173047" font-weight="700">Current Focus</text>
  <text x="145" y="205" font-family="Arial" font-size="22" fill="#476075">Communication</text>
  <text x="145" y="235" font-family="Arial" font-size="22" fill="#476075">Reliability</text>
  <text x="145" y="265" font-family="Arial" font-size="22" fill="#476075">Professionalism</text>
  <rect x="725" y="490" width="310" height="160" rx="22" fill="#ffffff" stroke="#c8dae8" stroke-width="4"/>
  <text x="753" y="535" font-family="Arial" font-size="28" fill="#173047" font-weight="700">Future Direction</text>
  <text x="753" y="577" font-family="Arial" font-size="22" fill="#476075">Business analysis</text>
  <text x="753" y="607" font-family="Arial" font-size="22" fill="#476075">Client service</text>
  <text x="753" y="637" font-family="Arial" font-size="22" fill="#476075">Creative leadership</text>
</svg>
